<?xml version="1.0" standalone="no"?>
<!DOCTYPE svg PUBLIC "-//W3C//DTD SVG 20010904//EN"
 "http://www.w3.org/TR/2001/REC-SVG-20010904/DTD/svg10.dtd">
<svg version="1.0" xmlns="http://www.w3.org/2000/svg"
 width="626.000000pt" height="626.000000pt" viewBox="0 0 626.000000 626.000000"
 preserveAspectRatio="xMidYMid meet">
<metadata>
Created by potrace 1.16, written by Peter Selinger 2001-2019
</metadata>
<g transform="translate(0.000000,626.000000) scale(0.100000,-0.100000)"
fill="#000000" stroke="none">
<path d="M666 6231 c20 -40 9 -75 -33 -108 -19 -16 -47 -40 -63 -55 -15 -16
-33 -28 -39 -28 -13 0 -24 -42 -18 -67 3 -11 5 -7 6 12 2 29 2 29 16 11 19
-25 19 -46 2 -46 -10 0 -5 -17 15 -57 34 -67 32 -106 -8 -140 -20 -18 -37 -23
-85 -23 -74 0 -126 -20 -139 -55 -6 -15 -10 -58 -10 -96 0 -65 -2 -73 -29
-100 -36 -36 -67 -37 -131 -5 -39 20 -50 22 -54 10 -6 -16 -35 -9 -54 15 -12
15 -15 14 -28 -3 -12 -17 -14 -142 -14 -836 l0 -816 28 -2 c17 -1 38 -15 59
-39 18 -21 44 -50 58 -64 14 -15 25 -32 25 -38 0 -13 43 -25 62 -18 8 4 7 6
-4 6 -24 1 -23 18 1 31 16 8 22 6 29 -6 8 -15 14 -14 54 10 111 65 177 11 178
-142 0 -32 6 -49 25 -67 21 -22 33 -25 100 -25 109 0 144 -23 145 -95 0 -23
-9 -54 -21 -74 -14 -24 -17 -37 -10 -44 16 -16 13 -47 -4 -53 -19 -8 -20 -34
-1 -34 8 0 21 -9 29 -21 8 -11 32 -29 53 -40 54 -28 74 -55 74 -99 0 -42 -23
-72 -82 -108 -49 -30 -87 -102 -54 -102 23 0 40 -28 27 -44 -9 -10 -6 -24 14
-57 33 -58 32 -93 -3 -128 -22 -23 -39 -29 -95 -34 -37 -3 -72 -9 -77 -12 -6
-4 -28 -33 -50 -65 -62 -91 -69 -92 -143 -23 -115 109 -362 338 -390 362 l-27
24 0 -1272 0 -1272 116 121 c67 69 124 120 135 120 16 0 82 -72 108 -118 7
-12 28 -17 77 -20 85 -4 118 -16 133 -48 16 -35 14 -64 -8 -106 -18 -36 -18
-37 2 -42 19 -5 19 -7 5 -28 -18 -26 -34 -22 -29 7 2 13 -1 17 -7 10 -11 -10
-16 -44 -13 -80 1 -16 3 -17 11 -5 12 19 20 10 24 -25 2 -21 13 -33 39 -46 20
-11 39 -23 42 -29 4 -7 382 -10 1123 -9 1054 0 1116 1 1092 17 -52 36 -70 60
-70 98 0 29 7 44 36 70 19 19 42 34 49 34 17 0 85 66 85 81 0 6 -11 20 -25 31
-28 22 -32 38 -10 38 19 0 19 3 -5 47 -30 57 -27 106 11 137 27 23 40 26 102
26 l72 0 58 65 c32 36 67 65 77 65 10 0 30 -15 46 -33 15 -17 157 -177 316
-354 l290 -323 1046 0 1047 0 143 149 142 149 0 1274 0 1275 -282 262 c-156
145 -290 272 -297 283 -14 19 -12 23 30 62 25 22 57 51 72 63 24 21 27 29 27
89 0 97 25 133 94 134 25 0 55 -10 85 -28 27 -16 63 -29 86 -30 29 -2 36 0 25
7 -18 12 -5 29 27 34 13 2 35 23 55 53 18 27 43 53 56 59 l22 10 0 813 c0 795
0 812 -19 803 -10 -6 -24 -24 -29 -41 -17 -48 -59 -80 -103 -80 -43 0 -63 15
-104 80 -14 22 -41 48 -60 57 -33 16 -34 16 -58 -13 -22 -25 -26 -27 -32 -12
-6 16 -11 16 -49 -7 -94 -55 -166 -17 -166 89 0 68 -13 89 -84 140 -41 29 -66
54 -66 65 0 11 103 126 239 267 l239 249 -1036 3 c-569 1 -1037 0 -1039 -2 -3
-2 67 -84 154 -181 102 -114 158 -184 158 -198 0 -16 -18 -34 -65 -65 -73 -49
-76 -54 -85 -135 -9 -77 -37 -112 -93 -112 -26 0 -51 8 -70 22 -25 18 -30 19
-38 6 -8 -13 -14 -14 -32 -4 -32 17 -28 35 6 26 21 -5 24 -4 15 6 -6 6 -31 14
-55 16 l-43 5 23 -20 c26 -23 30 -72 6 -72 -12 0 -14 7 -9 31 7 31 7 31 -26
24 -19 -4 -41 -16 -49 -28 -74 -105 -154 -109 -204 -9 -14 27 -32 52 -41 55
-8 4 -15 13 -15 22 0 15 -38 36 -63 34 -7 0 -1 -5 13 -10 20 -8 22 -12 10 -19
-23 -15 -50 -12 -50 5 0 11 -11 9 -52 -10 -62 -29 -79 -30 -118 -10 -37 19
-50 62 -47 148 2 63 0 70 -24 91 -20 17 -45 25 -99 30 -86 8 -107 18 -125 58
-15 36 -8 70 26 125 16 25 19 38 11 41 -14 4 -15 22 -2 42 9 13 11 13 20 0 8
-13 10 -12 10 3 0 10 -14 34 -32 53 l-32 34 -1112 0 -1112 0 14 -29z m1182
-907 c12 -8 36 -42 52 -74 48 -95 82 -108 176 -65 70 32 113 32 148 0 23 -21
26 -32 26 -90 0 -51 3 -65 15 -65 10 0 15 -10 15 -31 0 -21 -4 -28 -12 -23
-10 6 -10 5 -1 -7 12 -15 72 -34 141 -44 98 -15 123 -86 65 -180 -17 -27 -32
-61 -33 -75 -3 -36 1 -67 6 -53 9 20 56 -7 51 -29 -4 -12 6 -24 29 -39 45 -27
64 -56 64 -95 0 -41 -22 -66 -94 -106 l-60 -33 -12 -68 c-17 -89 -22 -104 -39
-111 -10 -4 -1210 416 -1357 475 -37 15 -36 37 9 121 34 65 36 72 24 102 -42
101 -45 116 -28 152 22 44 56 57 130 49 65 -7 149 12 112 25 -19 7 -18 9 13
38 23 22 32 39 32 62 0 47 27 96 61 110 35 15 74 6 116 -26 17 -13 41 -24 52
-24 11 0 24 -7 29 -16 6 -11 16 -13 35 -9 15 4 29 11 32 15 3 5 -4 6 -15 3
-25 -7 -26 9 -1 31 18 16 20 16 29 0 8 -14 14 -10 41 29 17 26 39 51 49 56 26
15 75 13 100 -5z m3123 -404 c10 -6 31 -34 45 -63 25 -50 68 -96 89 -97 6 0
16 9 23 20 14 22 38 27 44 8 3 -9 19 -6 57 11 45 19 57 21 87 11 47 -16 64
-53 64 -140 l0 -71 60 -56 c43 -39 60 -62 58 -77 -4 -25 -1093 -946 -1119
-946 -11 0 -35 27 -64 75 -50 79 -43 75 -150 89 -57 8 -99 55 -91 104 3 19 19
52 36 73 33 42 50 79 50 112 0 18 -2 19 -10 7 -9 -13 -11 -13 -20 0 -6 8 -8
22 -6 32 2 10 -13 28 -41 50 -53 39 -63 55 -63 101 0 27 8 42 35 66 20 17 42
31 50 31 9 0 23 9 33 21 9 11 27 25 40 30 12 5 22 16 22 24 0 9 -5 13 -10 10
-6 -3 -14 4 -19 17 -7 17 -5 26 7 35 13 11 13 17 2 40 -26 57 -30 84 -15 118
19 47 43 56 133 53 61 -2 84 1 105 15 29 18 32 29 42 121 8 69 44 116 90 116
28 0 79 -23 108 -48 15 -14 20 -14 27 -2 7 12 13 12 37 1 26 -13 27 -14 8 -22
-19 -7 -19 -8 2 -8 20 -1 41 18 135 120 28 31 80 39 119 19z m-1354 -1971
c210 -338 381 -621 380 -629 -1 -8 -38 -33 -82 -55 l-80 -40 -22 -70 c-13 -38
-32 -78 -44 -87 -41 -34 -116 -16 -159 39 -26 34 -57 52 -88 53 -22 0 -23 0
-4 -20 21 -23 18 -70 -4 -70 -16 0 -18 14 -4 40 8 15 5 18 -26 22 -27 3 -40
-1 -52 -17 -50 -61 -114 -81 -159 -50 -12 8 -29 36 -39 62 -10 27 -26 60 -36
76 -11 15 -16 27 -12 27 3 0 1 7 -6 15 -7 8 -20 15 -29 14 -10 0 -12 -2 -3 -6
19 -7 4 -23 -24 -23 -15 0 -24 6 -24 16 0 12 -5 14 -17 9 -10 -4 -44 -10 -75
-13 -51 -4 -59 -2 -83 23 -29 28 -29 36 -9 176 9 63 -18 92 -106 114 -131 32
-152 100 -61 198 20 22 23 30 12 36 -10 7 -11 13 -2 30 13 24 27 27 34 9 3 -7
6 -1 6 15 1 15 -4 27 -9 27 -6 0 -16 12 -23 27 -6 15 -26 40 -44 56 -39 35
-57 84 -44 120 12 31 42 52 101 72 26 9 59 28 74 44 l28 29 -21 21 c-24 24
-26 37 -7 44 11 5 11 13 0 56 -16 65 -4 105 39 127 26 14 40 15 103 4 l73 -13
53 45 c60 51 88 69 103 64 6 -1 182 -279 392 -617z m1901 -716 c15 -16 38 -43
52 -61 24 -32 27 -32 111 -36 93 -3 109 -8 109 -34 0 -9 -48 -332 -106 -717
-68 -444 -112 -705 -121 -715 -12 -13 -21 -12 -81 4 -37 10 -76 20 -87 23 -12
2 -37 -7 -60 -23 -94 -65 -153 -61 -186 10 -10 22 -19 49 -19 59 0 10 -8 17
-20 17 -14 0 -20 7 -20 23 0 34 12 41 27 15 l12 -23 1 22 c0 12 -11 35 -25 50
-15 17 -23 21 -19 11 8 -24 -7 -23 -34 2 -17 16 -35 20 -87 20 -57 0 -69 3
-90 25 -29 28 -34 94 -10 135 8 14 14 36 15 50 0 15 5 31 11 37 8 8 6 19 -5
42 -9 17 -19 31 -22 31 -2 0 0 -9 6 -21 15 -27 7 -34 -19 -17 -13 8 -20 20
-17 30 3 13 -8 24 -40 40 -61 30 -79 52 -79 98 0 43 25 76 83 112 32 20 62 64
62 91 0 7 -20 45 -45 83 -46 71 -53 97 -34 137 15 32 42 47 100 54 38 4 49 10
49 23 0 20 41 35 51 19 4 -8 9 -7 15 2 11 17 13 43 13 135 0 68 2 73 31 98 38
31 66 33 129 5 56 -23 125 -23 127 1 1 8 2 25 2 38 2 18 6 22 22 17 16 -5 23
1 36 35 32 81 110 106 162 53z m-3846 -20 l59 -26 68 33 c52 25 75 31 98 26
53 -12 66 -37 73 -137 5 -68 11 -94 25 -107 10 -9 15 -12 11 -5 -13 24 13 22
32 -2 16 -19 29 -25 61 -25 117 0 162 -71 106 -169 -14 -23 -25 -54 -25 -67 0
-13 -4 -24 -10 -24 -15 0 -12 -33 5 -56 13 -18 14 -18 8 5 -7 27 14 26 31 -2
8 -13 8 -20 -3 -26 -11 -7 -9 -10 9 -16 12 -4 40 -23 61 -42 31 -28 39 -42 39
-70 0 -50 -14 -70 -74 -103 -100 -57 -111 -89 -61 -183 19 -36 35 -78 35 -92
0 -58 -51 -95 -131 -95 -28 0 -39 -4 -39 -15 0 -8 -9 -15 -20 -15 -28 0 -35 3
-32 15 2 6 -4 2 -14 -7 -18 -18 -19 -21 -32 -132 -6 -57 -12 -72 -35 -92 -36
-31 -79 -31 -134 2 -47 27 -110 38 -134 23 -9 -5 -10 -9 -2 -9 9 0 9 -8 2 -30
-9 -25 -14 -28 -29 -20 -15 8 -20 5 -28 -18 -14 -40 -61 -82 -91 -82 -52 0
-70 13 -111 76 -39 60 -44 63 -88 69 -106 14 -121 17 -133 31 -9 11 8 85 81
352 200 731 291 1055 296 1064 9 14 56 3 126 -29z"/>
</g>
</svg>
